<svg id="Layer_1" data-name="Layer 1" xmlns="http://www.w3.org/2000/svg" width="83.63" height="78.42" viewBox="0 0 83.63 78.42"><defs><style>.cls-1{fill:#e4dbca;}.cls-2{fill:#a3ddf1;}.cls-3,.cls-4{fill:none;stroke:#fff;stroke-miterlimit:10;}.cls-3{stroke-width:1.58px;}.cls-4{stroke-width:0.79px;}.cls-5{fill:#e6e7e8;}.cls-6{fill:#404041;}.cls-7{fill:#bbbdbf;}.cls-8{fill:#a6a8ab;}.cls-9{fill:#ec1e24;}.cls-10{fill:#f48b8d;}.cls-11{fill:#b22c2d;}</style></defs><title>Boston1_v8</title><rect class="cls-1" x="2.76" y="26.56" width="77.94" height="49.49"/><rect class="cls-2" x="8.42" y="35.81" width="17.07" height="27.75"/><line class="cls-3" x1="9.25" y1="48.71" x2="21.27" y2="36.69"/><line class="cls-4" x1="8.52" y1="52.21" x2="24.88" y2="35.85"/><path class="cls-5" d="M7.82,34.92V63.71h18.4V34.92ZM24.64,44H17.55V36.5h7.09Zm-7.09,1.06h7.09v8.54H17.55ZM16.5,53.59H9.4V45.05h7.1Zm0-17.09V44H9.4V36.5ZM9.4,54.64h7.1v7.49H9.4Zm8.15,7.49V54.64h7.09v7.49Z"/><polygon class="cls-6" points="24.64 36.51 17.55 36.51 17.55 36.95 24.2 36.95 24.2 43.99 24.64 43.99 24.64 36.51"/><polygon class="cls-6" points="16.5 62.13 16.5 54.65 9.4 54.65 9.4 55.09 16.05 55.09 16.05 62.13 16.5 62.13"/><polygon class="cls-6" points="24.64 62.13 24.64 54.65 17.55 54.65 17.55 55.09 24.2 55.09 24.2 62.13 24.64 62.13"/><polygon class="cls-6" points="24.64 45.05 17.55 45.05 17.55 45.49 24.2 45.49 24.2 53.59 24.64 53.59 24.64 45.05"/><polygon class="cls-6" points="7.82 63.71 7.82 34.92 7.38 35.37 7.38 64.16 25.96 64.16 26.22 63.71 7.82 63.71"/><polygon class="cls-6" points="16.5 36.51 9.4 36.51 9.4 36.95 16.05 36.95 16.05 43.99 16.5 43.99 16.5 36.51"/><polygon class="cls-6" points="16.5 45.05 9.4 45.05 9.4 45.49 16.05 45.49 16.05 53.59 16.5 53.59 16.5 45.05"/><rect class="cls-2" x="59.89" y="35.81" width="17.07" height="27.75"/><line class="cls-3" x1="60.73" y1="48.71" x2="72.75" y2="36.69"/><line class="cls-4" x1="60" y1="52.21" x2="76.36" y2="35.85"/><path class="cls-5" d="M59.3,34.92V63.71H77.7V34.92ZM76.12,44H69V36.5h7.1ZM69,45.05h7.1v8.54H69Zm-1,8.54H60.88V45.05H68ZM68,36.5V44H60.88V36.5ZM60.88,54.64H68v7.49H60.88ZM69,62.13V54.64h7.1v7.49Z"/><polygon class="cls-6" points="76.11 36.51 69.02 36.51 69.02 36.95 75.67 36.95 75.67 43.99 76.11 43.99 76.11 36.51"/><polygon class="cls-6" points="67.97 62.13 67.97 54.65 60.88 54.65 60.88 55.09 67.53 55.09 67.53 62.13 67.97 62.13"/><polygon class="cls-6" points="76.11 62.13 76.11 54.65 69.02 54.65 69.02 55.09 75.67 55.09 75.67 62.13 76.11 62.13"/><polygon class="cls-6" points="76.11 45.05 69.02 45.05 69.02 45.49 75.67 45.49 75.67 53.59 76.11 53.59 76.11 45.05"/><polygon class="cls-6" points="59.3 63.71 59.3 34.92 58.85 35.37 58.85 64.16 77.44 64.16 77.7 63.71 59.3 63.71"/><polygon class="cls-6" points="67.97 36.51 60.88 36.51 60.88 36.95 67.53 36.95 67.53 43.99 67.97 43.99 67.97 36.51"/><polygon class="cls-6" points="67.97 45.05 60.88 45.05 60.88 45.49 67.53 45.49 67.53 53.59 67.97 53.59 67.97 45.05"/><rect class="cls-5" x="29.86" y="31.97" width="25.36" height="43.91"/><polygon class="cls-6" points="31.76 33.55 31.76 34 32.21 34 52.86 34 52.86 77.07 53.31 77.07 53.31 34 53.31 33.55 31.76 33.55"/><rect class="cls-7" x="28.71" y="72.74" width="27.2" height="3.78"/><rect class="cls-8" x="27.32" y="74.64" width="29.97" height="3.78"/><polygon class="cls-6" points="29.86 31.97 29.42 32.42 29.42 72.76 29.86 72.76 29.86 31.97"/><rect class="cls-9" x="31.76" y="34.01" width="21.09" height="38.62"/><rect class="cls-10" x="33.61" y="36.55" width="7.33" height="9.92"/><polygon class="cls-11" points="40.94 46.47 33.61 46.47 33.61 36.55 37.06 40.23 38.29 43.78 40.94 46.47"/><rect class="cls-9" x="33.23" y="38.72" width="8.08" height="5.57" transform="translate(78.78 4.24) rotate(90)"/><rect class="cls-10" x="42.26" y="36.55" width="7.33" height="9.92"/><polygon class="cls-11" points="49.6 46.47 42.26 46.47 42.26 36.55 45.72 40.23 46.95 43.78 49.6 46.47"/><rect class="cls-9" x="41.89" y="38.72" width="8.08" height="5.57" transform="translate(87.44 -4.42) rotate(90)"/><rect class="cls-10" x="33.61" y="59.97" width="7.33" height="9.92"/><polygon class="cls-11" points="40.94 69.88 33.61 69.88 33.61 59.97 37.06 63.64 38.29 67.19 40.94 69.88"/><rect class="cls-9" x="33.23" y="62.14" width="8.08" height="5.57" transform="translate(102.2 27.65) rotate(90)"/><rect class="cls-10" x="42.26" y="59.97" width="7.33" height="9.92"/><polygon class="cls-11" points="49.6 69.88 42.26 69.88 42.26 59.97 45.72 63.64 46.95 67.19 49.6 69.88"/><rect class="cls-9" x="41.89" y="62.14" width="8.08" height="5.57" transform="translate(110.85 19) rotate(90)"/><rect class="cls-10" x="33.61" y="48.26" width="7.33" height="9.92"/><polygon class="cls-11" points="40.94 58.17 33.61 58.17 33.61 48.26 37.06 51.93 38.29 55.49 40.94 58.17"/><rect class="cls-9" x="33.23" y="50.43" width="8.08" height="5.57" transform="translate(90.49 15.94) rotate(90)"/><rect class="cls-10" x="42.26" y="48.26" width="7.33" height="9.92"/><polygon class="cls-11" points="49.6 58.17 42.26 58.17 42.26 48.26 45.72 51.93 46.95 55.49 49.6 58.17"/><rect class="cls-9" x="41.89" y="50.43" width="8.08" height="5.57" transform="translate(99.15 7.29) rotate(90)"/><rect class="cls-6" x="50.87" y="51.57" width="1.09" height="5.89" rx="0.36"/><polygon class="cls-1" points="6.34 28.41 74.41 28.41 39.54 5.44 6.34 28.41"/><polygon class="cls-6" points="83.63 35.07 42.67 10.54 0 36.55 0 26.02 42.67 0 83.63 24.54 83.63 35.07"/></svg>