<svg id="Layer_1" data-name="Layer 1" xmlns="http://www.w3.org/2000/svg" viewBox="0 0 71.69 86.57"><defs><style>.cls-1{fill:#a87c4f;}.cls-2{fill:#8a5d3b;}.cls-3{fill:#006838;}.cls-4{fill:#034a25;}.cls-5{fill:#009345;}.cls-6{fill:#00783d;}</style></defs><title>Boston1_v8</title><path class="cls-1" d="M35.39,32.86h0c-1.72,0-3.14,1.72-3.28,4L29.4,82c-.15,2.49,1.36,4.62,3.28,4.62h5.43c1.91,0,3.43-2.13,3.28-4.62L38.67,36.81C38.54,34.58,37.11,32.86,35.39,32.86Z"/><path class="cls-2" d="M30.12,82l3.53-45.14a4.29,4.29,0,0,1,3-3.76,4.43,4.43,0,0,0-1.27-.19h0a4.29,4.29,0,0,0-4.27,4L27.59,82a4.29,4.29,0,0,0,4.27,4.62h2.53A4.28,4.28,0,0,1,30.12,82Z"/><rect class="cls-3" x="40.22" y="10.83" width="28.63" height="18.69" rx="9.35"/><rect class="cls-3" x="7.1" y="25.98" width="37.38" height="23.66" rx="11.83"/><rect class="cls-3" x="17.75" y="33.6" width="37.38" height="23.66" rx="11.83"/><path class="cls-4" d="M45.51,55.05H31.78A11.83,11.83,0,0,1,20,43.22h0A11.74,11.74,0,0,1,22.39,36a11.8,11.8,0,0,0-4.64,9.39h0A11.82,11.82,0,0,0,29.58,57.26H43.3a11.8,11.8,0,0,0,9.39-4.64A11.8,11.8,0,0,1,45.51,55.05Z"/><rect class="cls-5" x="43.06" y="32.13" width="28.63" height="18.69" rx="9.35"/><path class="cls-6" d="M64.4,48.77H54.46a9.35,9.35,0,0,1-9.35-9.35h0a9.31,9.31,0,0,1,1.8-5.5,9.34,9.34,0,0,0-3.85,7.55h0a9.35,9.35,0,0,0,9.35,9.35h9.94A9.33,9.33,0,0,0,69.9,47,9.37,9.37,0,0,1,64.4,48.77Z"/><rect class="cls-3" x="34.54" y="21.48" width="32.89" height="24.13" rx="12.07"/><path class="cls-4" d="M57.34,43.64H48.58A12.06,12.06,0,0,1,36.52,31.58h0a12,12,0,0,1,2.6-7.49,12.06,12.06,0,0,0-4.58,9.46h0A12.07,12.07,0,0,0,46.61,45.61h8.76A12,12,0,0,0,64.82,41,12,12,0,0,1,57.34,43.64Z"/><rect class="cls-5" y="14.62" width="40.93" height="25.08" rx="12.54"/><path class="cls-6" d="M30.88,37.22H15A12.55,12.55,0,0,1,2.48,24.68h0A12.5,12.5,0,0,1,5,17.14a12.51,12.51,0,0,0-5,10H0A12.53,12.53,0,0,0,12.54,39.7H28.39a12.49,12.49,0,0,0,10-5A12.45,12.45,0,0,1,30.88,37.22Z"/><rect class="cls-3" x="16.62" width="35.74" height="27.58" rx="13.79"/><path class="cls-4" d="M40.69,25.45H32.54A13.78,13.78,0,0,1,18.75,11.66h0a13.75,13.75,0,0,1,3-8.63,13.76,13.76,0,0,0-5.16,10.76h0A13.78,13.78,0,0,0,30.41,27.58h8.15a13.76,13.76,0,0,0,10.76-5.16A13.7,13.7,0,0,1,40.69,25.45Z"/></svg>