<svg id="Layer_1" data-name="Layer 1" xmlns="http://www.w3.org/2000/svg" width="80" height="80" viewBox="0 0 80 80"><defs><style>.cls-1{fill:#e6e6e6;}.cls-2{fill:gray;}.cls-3{fill:#b3b3b3;}.cls-4{fill:none;}</style></defs><title>Boston1_v8</title><circle class="cls-1" cx="40" cy="40" r="40"/><path class="cls-2" d="M36.76,31a.44.44,0,0,0,.06.8,4.59,4.59,0,0,0,3.21,0c2.22-.84.3-2.4,2.1-2.4s2.28.18,2.82.54.78-.84.78-1.38,1.68-.6,2.82-.12,2.27,2.28,1.85,3.48-2.09.3-1.31,1.38.06,1.68-.72,1.8-3,.54-4.32-.6-3.66.18-3.78,1.32.18,3.35,2.4,3.35,1.74,1,1,2.1-.18,2.34-1.8,1.74-3-1.32-3.72-.42.66.48.66,1.44-3.23.18-3.17,1.62.53,2,1.37,2.28,1.92,1,1.26,2.34,1.38,1.55,2,.83,1.2.72.66,2.34-1.32,1.38-1.2,2.52,1.86,1.14,2.1,2.88-.06,1.68-1.68,1.8-4.26.9-4.43,1.92-1.26,1-2,.24l-3-3-.24.48A7.43,7.43,0,0,1,33,64.58c.3,2.51-1,2.69-1.56,2.63s-1.14-.72-2-.42-1.62-1.26-1.44-2.21,1.62-1.38,1.26-2.46-1.26-1.26-1.68-.18-.6,2.82-2.4,3.06-3.78.24-5.45-2-.3-4.26-.24-4.74c0,0,1.73,1,2.27-.3s-.36-2.46-1.13-3.24-2-2.4-2-1.32-.72,1.38-2.52.48-1.14.12-.6.72.72.9-.36,1.26-1.26-.9-1.2-1.62-1-1.68-1.14-.24-1.5,2.22-2.16.06-2.4-3.23-3.48-5a12.57,12.57,0,0,1-1.73-5.58c-.24-2.22-.6-3.72-1.86-3.12S1.84,36.69,2,35.26,1.6,30.7,3.7,26.5s4-8.87,6.71-11.33,2.76-2.76,3.78-3.42,0,1-.06,1.5,2-.3,3.66-1.32,3.53-2,5.21-1.8.78.9-.72,1.68-4,3.06-5,3.36a2.68,2.68,0,0,0-1.74,2.52c-.25,1.8-.78,2.76-.48,3.54s2.1.53,3.3-.48,2.22-2.4,2-3.9,2.27-3.42,4.67-1.92c0,0,.84-2.1,2.58-2.28s1.38-.9,3.42-.66,3.6-.33,4.62.18c1.37.7,3.41,2.62,1.61,4.26s-1,2.64.08,3.48.76,1.4-1,2.11-.36,1.28-.16,1.64c0,0-2-.44-2.27.88s2.59,3,4.77,2.95a.52.52,0,0,1,.46.75A6,6,0,0,1,36.76,31Zm7.47-10.58c-.3,1.91-.18,5.51,2.88,6.47,2.55.8,5.09,1.68,6.77,1.05a.52.52,0,0,1,.65.66A3.37,3.37,0,0,1,53,30.64a.63.63,0,0,0-.23,1,6.36,6.36,0,0,1,1.55,3c.18,1.73.18,4.67,3.06,4.61s3.24.78,2.7,1.92-1.74.18-1.5,2,1.86.78,2.64,1.26.9,1.62,1.86.78.3-2.88-.18-5,.24-4.25,1.26-4.31c.85-.06,1.63,1,3.21.5a.67.67,0,0,1,.91.57,3.18,3.18,0,0,0,.59,1.72A.94.94,0,0,1,68.54,40c-.19.11-.33.22-.33.31,0,.3,1.32,1.56,1.86,1.86s-.48,1.5.54,2S71.93,44,72.29,44s1.68-.6,1.74.72-.78,1.68-1.38,1.68-1.74,1.32-1.68,2,.78.78,1.38.54.24,1.14,1,1,1.08-1.38,1.5-2,1.14-1.38,1.62-1.44,1.2-2,.66-2.28A5,5,0,0,1,75.47,41a2.91,2.91,0,0,1,1.08-2.58c.72-.54.18-1.08-.6-2.16s-.18-2.39-1-3.11c-.63-.58-.81-.48-.86.14a.27.27,0,0,1-.45.2,12.89,12.89,0,0,1-2.11-2.08c-.78-1.08-2.28-1.8-3.18-1.26a4.16,4.16,0,0,0-1.16,1,.23.23,0,0,1-.41-.14c0-.27,0-.56,0-.84a1,1,0,0,1,.7-1,1.64,1.64,0,0,0,.91-.56c.24-.48-2.16.12-3.18-1s-1.61-2.16-.89-2.82-.3-1-1.08-1-.72-.84-.9-1.38-.9,0-.66,1.26.06,2.7-.54,2.94-1.38-2-2.64-1.5-1.08-1.38-.36-1.74S56,21.64,57,20.93s.18-1-.6-1.26-3.18-2.16-2.22-2.94a1.63,1.63,0,0,1,2,0,.55.55,0,0,0,.77-.34,1.15,1.15,0,0,1,1.45-.84c1.56.3.3-.9-.84-1.2s-1.14-2.16-1.2-2.4-.6.06-.84.78a2.5,2.5,0,0,1-1.74,1.8c-1,.18-1.5,0-2.22,1.26s-2,1.2-3.35.24-4.13-.1-4,4.32M65,45.54c-.41,1.29-1.47,1.32-1.71,2.31S64.41,50.22,66,51s2.43-2.63,2.19-3.74.48-2.67-1.11-2.28S65.24,44.58,65,45.54Zm-37-35.47c1.68.66,1.86.3,2.82-.66s3.72-.9,4.5-.66,2.81.3,3,.48a2.11,2.11,0,0,0,2.1,0c.72-.54.6,1.08,1.56,1.14s.78-.42.9-1.2,1.14-.66,1.92-.18.66.66,1.26.06,2-1.14,2.88-.3,2.09,1,1.85.36a10.59,10.59,0,0,1-.59-2c-.18-1-1.26-1.07-2.7-1.37s-3.66.3-6.06,1.43S37,6.42,35.77,6.36s-1.13,1.07-3,.71S31,7,29.12,7.25s-2.32-.59-3,1C25.64,9.41,26.24,9.41,27.92,10.07Z"/><path class="cls-3" d="M67.58,47.88c-.24-1.11.48-2.67-1.11-2.28a3.65,3.65,0,0,1-1.57,0,2.66,2.66,0,0,1-.92,1.2,3.32,3.32,0,0,1-.53.53,1.35,1.35,0,0,0-.21.47C63,48.84,64.41,50.22,66,51a.91.91,0,0,0,.89,0A5.26,5.26,0,0,0,67.58,47.88Z"/><path class="cls-3" d="M76.55,44.73a5,5,0,0,1-1.68-3.12A2.91,2.91,0,0,1,76,39l.1-.09.13-.15c.32-.47-.17-1-.83-1.92s-.18-2.39-1-3.11a2.23,2.23,0,0,0-.35-.28.26.26,0,0,1-.36,0l0,0a1,1,0,0,0-.11.43.27.27,0,0,1-.45.2A12.89,12.89,0,0,1,71,32c-.78-1.08-2.28-1.8-3.18-1.26a4.32,4.32,0,0,0-1.16,1,.22.22,0,0,1-.4-.13c0-.27,0-.56,0-.84a1,1,0,0,1,.68-1,1.08,1.08,0,0,1,.62-.62l.27-.1c-.34-.21-2.25.11-3.13-.82s-1.62-2.16-.9-2.82-.3-1-1.08-1-.72-.84-.9-1.38a.34.34,0,0,0-.09-.14,2.47,2.47,0,0,0,0,.8c.24,1.26.06,2.7-.54,2.94a.26.26,0,0,1-.15,0,1,1,0,0,1-.45.59c-.6.24-1.38-2-2.64-1.5S56.88,24.4,57.6,24s-2.16-1.8-1.2-2.52.18-1-.6-1.25-3.18-2.16-2.22-2.94A1.33,1.33,0,0,1,54,17.1a.54.54,0,0,1,.21-.37,1.63,1.63,0,0,1,2,0,.58.58,0,0,0,.26.05,1.12,1.12,0,0,1,.59-.58,1.08,1.08,0,0,1,1.08-.68A3.64,3.64,0,0,0,56.94,15c-1.14-.3-1.14-2.16-1.2-2.4a.1.1,0,0,0-.13-.08,2,2,0,0,0-.11.26,2.91,2.91,0,0,1-1.06,1.52,2,2,0,0,1-1.28.88,4.12,4.12,0,0,0-1.4.33c-.07.1-.14.2-.22.33a1.85,1.85,0,0,1-.69.72c-.73,1.12-2,1-3.26.12a2.14,2.14,0,0,0-2.5.11,5.6,5.6,0,0,0-.86,3.61c-.3,1.91-.18,5.51,2.88,6.47,2.55.8,5.09,1.68,6.77,1.05a.52.52,0,0,1,.65.66,3.67,3.67,0,0,1-1.2,1.83,2.75,2.75,0,0,1-.7.66.59.59,0,0,0,.12.55,6.36,6.36,0,0,1,1.55,3c.18,1.73.18,4.67,3.06,4.61s3.24.78,2.7,1.92a1.06,1.06,0,0,1-.59.58v0a1.27,1.27,0,0,1-.91.7,2.23,2.23,0,0,0,0,.68c.24,1.8,1.86.78,2.64,1.26s.86,1.35,1.55,1c.5-1-.06-2.76-.47-4.59s.11-3.84,1-4.24a1.2,1.2,0,0,1,.89-.67c.85-.06,1.63,1,3.21.5a.67.67,0,0,1,.91.57,3.18,3.18,0,0,0,.59,1.72A.94.94,0,0,1,68.54,40a.91.91,0,0,0-.23.16,1.51,1.51,0,0,1-.09.18,6.31,6.31,0,0,0,1.85,1.83c.54.3-.48,1.5.54,2S71.93,44,72.29,44s1.68-.6,1.74.72a1.45,1.45,0,0,1-.77,1.54,1.31,1.31,0,0,1-1.21.74,1.08,1.08,0,0,0-.58.26,1.89,1.89,0,0,0-.5,1.12c.06.66.78.78,1.38.54s.24,1.14,1,1a1,1,0,0,0,.18-.08c.28-.44.48-1,.72-1.36a4.84,4.84,0,0,1,1-1.1,2.89,2.89,0,0,1,1.16-.92C76.7,45.81,76.91,44.89,76.55,44.73Z"/><path class="cls-3" d="M48,29a4.37,4.37,0,0,0-2.23-.28c0,.56-.27,1.4-.71,1.2-.12.44-.33.8-.66.58-.54-.36-1-.54-2.82-.54l-.28,0a1.56,1.56,0,0,1-.76,1.56,1.83,1.83,0,0,1-1.06.82,4.59,4.59,0,0,1-3.21,0,.44.44,0,0,1-.06-.8,2.7,2.7,0,0,0,.39-.27.47.47,0,0,1,.21-.33,4.65,4.65,0,0,0,.66-.48,6.63,6.63,0,0,0,1-1.65.53.53,0,0,0-.46-.76c-2.18,0-5-1.77-4.77-2.94a1,1,0,0,1,.67-.79,1.2,1.2,0,0,1,1-.71c-.19-.25-.19-.55.49-.89,0-.22.23-.46.89-.73a5.8,5.8,0,0,0,1-.48c.11-.31-.07-.64-.58-1-1.07-.84-1.87-1.84-.08-3.48s-.24-3.56-1.61-4.26c-1-.51-2.58.06-4.62-.18s-1.68.48-3.42.66a2.44,2.44,0,0,0-1.3.56A5.1,5.1,0,0,0,25,14.93l-.21-.12a4.76,4.76,0,0,0-.39.72,3.23,3.23,0,0,0-3.71.08,1.66,1.66,0,0,0-.36,1.24,4.32,4.32,0,0,1-1.75,3.68,9.17,9.17,0,0,1-.83.82c-1.2,1-3,1.25-3.3.47s.23-1.73.48-3.53a3,3,0,0,1,1.15-2.24,2.12,2.12,0,0,1,1.19-.88c1-.3,3.54-2.58,5-3.36a9.94,9.94,0,0,0,1-.59c.07-.23-.18-.41-.9-.49-1.67-.18-3.53.78-5.21,1.8s-3.72,1.8-3.66,1.32,1.08-2.16.06-1.5-1.08,1-3.77,3.42C7.43,18.33,5.64,22.62,3.7,26.5,1.6,30.7,2.08,33.82,2,35.26S2.2,41,3.46,40.35s1.62.9,1.86,3.12a12.57,12.57,0,0,0,1.73,5.58c1.08,1.79,2.82,2.87,3.48,5,.35,1.15.88,1.46,1.34,1.29a2.13,2.13,0,0,0,.22-.75c.09-.68.36-.82.62-.7.22-1.28,1.18-.36,1.12.34s.12,2,1.2,1.62l.17-.06a1.72,1.72,0,0,0-.41-.6c-.52-.58-1.15-1.54.43-.8-.48-.59-.84-1.32.77-.52a3.38,3.38,0,0,0,1.88.51,2.23,2.23,0,0,0,0-.39c0-.45.22-.42.54-.18a1.33,1.33,0,0,0,.06-.42c0-1.08,1.26.54,2,1.32s1.67,1.92,1.13,3.24a1,1,0,0,1-.6.61c-.4.95-1.42.67-1.94.45a3.91,3.91,0,0,0,.51,4c1.67,2.22,3.65,2.22,5.45,2a2.33,2.33,0,0,0,.95-.36,9.85,9.85,0,0,0,.85-2.1c.17-.43.4-.65.65-.71.44-.94,1.28-.75,1.63.29s-1.08,1.5-1.26,2.46.54,2.51,1.44,2.21,1.5.36,2,.42a1.38,1.38,0,0,0,.76-.12,3.36,3.36,0,0,0,.2-1.91,7.43,7.43,0,0,0-2.58-4.32l.24-.48,2.35,2.35a8.25,8.25,0,0,0-2-2.47l.24-.48,3,3A1.54,1.54,0,0,0,35,63.3l.06-.16a1.36,1.36,0,0,1,.66-.8c.46-.92,2.86-1.61,4.37-1.72a9.53,9.53,0,0,0,1.13-.12,3.85,3.85,0,0,0,0-1.08c-.24-1.74-2-1.74-2.1-2.88s.66-.9,1.2-2.52-.06-3.06-.66-2.34-2.64.48-2-.84-.42-2.09-1.26-2.33-1.31-.84-1.37-2.28c0-.42.24-.64.61-.79.16-.83,1.68-.75,2.55-.95-.11-.8-1.33-.46-.65-1.32a1.12,1.12,0,0,1,.42-.31,1.28,1.28,0,0,1,.18-.29c.72-.9,2.1-.18,3.72.42a1.78,1.78,0,0,0,.68.15A4,4,0,0,1,43,41.85c.78-1.08,1.26-2.1-1-2.1s-2.52-2.22-2.4-3.36a1.87,1.87,0,0,1,.83-1.16c.64-.94,2.45-1.71,3.55-.75,1.32,1.14,3.54.72,4.32.6a2,2,0,0,0,.41-.13,1.25,1.25,0,0,0-.29-1.07c-.5-.69,0-.58.53-.71-.41-.63.22-.45.78-.66h0C50.23,31.3,49.09,29.5,48,29Z"/><path class="cls-3" d="M27.92,10.07c1.68.66,1.86.3,2.82-.66s3.72-.9,4.5-.66,2.81.3,3,.48a2.11,2.11,0,0,0,2.1,0c.72-.54.6,1.08,1.56,1.14a1.76,1.76,0,0,0,.23,0c0-.17,0-.37.07-.6a.62.62,0,0,1,.59-.54.13.13,0,0,0,0-.06c.12-.78,1.14-.66,1.92-.18s.66.66,1.26.06,2-1.14,2.88-.3a2.62,2.62,0,0,0,1.16.7,9.21,9.21,0,0,1-.5-1.78c-.18-1-1.26-1.07-2.7-1.37s-3.66.3-6.06,1.43S36.37,7,35.18,7,34,8,32.18,7.67s-1.8-.06-3.66.18c-1.14.15-1.76-.1-2.22.05-.06.11-.12.23-.18.37C25.64,9.41,26.24,9.41,27.92,10.07Z"/><ellipse class="cls-4" cx="41.61" cy="69.19" rx="0.8" ry="0.52"/><ellipse class="cls-4" cx="41.21" cy="77.15" rx="1.2" ry="0.36"/><ellipse class="cls-3" cx="71.18" cy="23.57" rx="2.43" ry="4.21" transform="translate(-3.52 30.02) rotate(-23.26)"/><path class="cls-2" d="M69,24.53A6.39,6.39,0,0,1,68.37,22a2.44,2.44,0,0,1,1.1-2.35,1.91,1.91,0,0,1,1.39,0A3.54,3.54,0,0,1,72,20.3a6.66,6.66,0,0,1,1.56,2.23,6.4,6.4,0,0,1,.54,2.66,3.52,3.52,0,0,1-.29,1.35,1.86,1.86,0,0,1-1,1,2.44,2.44,0,0,1-2.46-.82A6.36,6.36,0,0,1,69,24.53Zm0,0a6.35,6.35,0,0,0,1.51,2.15,2.3,2.3,0,0,0,2.34.66,2.27,2.27,0,0,0,1-2.16,6.19,6.19,0,0,0-.56-2.49,6.18,6.18,0,0,0-1.42-2.12,2.25,2.25,0,0,0-2.23-.77A2.27,2.27,0,0,0,68.43,22,6.4,6.4,0,0,0,69,24.53Z"/><ellipse class="cls-3" cx="5.68" cy="51.36" rx="0.88" ry="1.64" transform="matrix(0.97, -0.25, 0.25, 0.97, -12.67, 3.05)"/><path class="cls-2" d="M6.53,51.14a2.34,2.34,0,0,0-.45-.89c-.2-.25-.53-.46-.79-.37s-.34.43-.36.73a2.89,2.89,0,0,0,.1.92,3.26,3.26,0,0,0,.36.86c.16.25.4.49.67.46s.45-.39.51-.71A2.42,2.42,0,0,0,6.53,51.14Zm0,0a3.13,3.13,0,0,1,.1,1,1,1,0,0,1-.52.91,1,1,0,0,1-1-.45,2.52,2.52,0,0,1-.48-1,2.46,2.46,0,0,1,0-1.08,1,1,0,0,1,.67-.88,1,1,0,0,1,.89.53A3.31,3.31,0,0,1,6.53,51.14Z"/><ellipse class="cls-3" cx="23.24" cy="72.37" rx="0.66" ry="1.92" transform="translate(-52.75 73.82) rotate(-73.29)"/><path class="cls-2" d="M25.08,72.92c0-.38-.39-.58-.67-.74a4.45,4.45,0,0,0-1-.34,5.17,5.17,0,0,0-1-.12,2.56,2.56,0,0,0-.49,0c-.15,0-.29.11-.27.12s0,.15.16.25a2,2,0,0,0,.39.3,5.68,5.68,0,0,0,.92.47,4.6,4.6,0,0,0,1,.27C24.44,73.19,24.89,73.25,25.08,72.92Zm0,0c-.06.18-.27.24-.44.27a2.41,2.41,0,0,1-.54,0A5,5,0,0,1,23,73.1,4.63,4.63,0,0,1,22,72.75a2.86,2.86,0,0,1-.48-.32.71.71,0,0,1-.29-.67.72.72,0,0,1,.61-.41,2.8,2.8,0,0,1,.58,0,4.21,4.21,0,0,1,1.07.28,5.28,5.28,0,0,1,1,.49,2.18,2.18,0,0,1,.42.33C25,72.58,25.13,72.74,25.08,72.92Z"/><ellipse class="cls-3" cx="44.77" cy="71.65" rx="1.62" ry="0.9" transform="translate(-13.17 10.16) rotate(-11.29)"/><path class="cls-2" d="M46.36,71.33a.86.86,0,0,0-.77-.54,2.5,2.5,0,0,0-1,.08,2.31,2.31,0,0,0-.84.43c-.24.18-.43.44-.38.63s.3.36.59.43a2.45,2.45,0,0,0,.94.07,2.41,2.41,0,0,0,.94-.3A.87.87,0,0,0,46.36,71.33Zm0,0a1,1,0,0,1-.47.85,2.84,2.84,0,0,1-.92.46,2.52,2.52,0,0,1-1.06.08A1,1,0,0,1,43,72a1.07,1.07,0,0,1,.59-1,2.75,2.75,0,0,1,2-.26C45.92,70.82,46.28,71,46.36,71.33Z"/><ellipse class="cls-3" cx="46.87" cy="62.84" rx="1.44" ry="1.08"/><path class="cls-2" d="M48.31,62.84a.94.94,0,0,0-.52-.79,1.65,1.65,0,0,0-.92-.19c-.62,0-1.23.47-1.23,1s.61.93,1.23,1a1.73,1.73,0,0,0,.92-.18A1,1,0,0,0,48.31,62.84Zm0,0A1.43,1.43,0,0,1,46.87,64a1.79,1.79,0,0,1-1-.22,1.13,1.13,0,0,1-.6-1,1.15,1.15,0,0,1,.6-1,1.87,1.87,0,0,1,1-.22C47.54,61.7,48.28,62.14,48.31,62.84Z"/><ellipse class="cls-3" cx="54" cy="66.01" rx="1.26" ry="0.78" transform="translate(-10.81 10.57) rotate(-10.17)"/><path class="cls-2" d="M55.24,65.79a.7.7,0,0,0-.58-.48,1.71,1.71,0,0,0-.78,0c-.47.13-1,.53-.91.85s.66.52,1.15.48a1.82,1.82,0,0,0,.75-.23A.69.69,0,0,0,55.24,65.79Zm0,0a.79.79,0,0,1-.34.71,2,2,0,0,1-.74.39,2,2,0,0,1-.88,0A.8.8,0,0,1,53,65.41a1.85,1.85,0,0,1,.84-.27,1.94,1.94,0,0,1,.83.11A.8.8,0,0,1,55.24,65.79Z"/><ellipse class="cls-3" cx="37.69" cy="72.61" rx="1.44" ry="0.84"/><path class="cls-2" d="M39.13,72.61a.76.76,0,0,0-.56-.63,1.89,1.89,0,0,0-.88-.1,1.86,1.86,0,0,0-.81.24c-.23.12-.42.32-.41.49s.18.37.41.49a2,2,0,0,0,.81.24,2,2,0,0,0,.88-.1A.76.76,0,0,0,39.13,72.61Zm0,0a.85.85,0,0,1-.54.69,2.36,2.36,0,0,1-1.86.14,1,1,0,0,1-.69-.83,1,1,0,0,1,.69-.83,2.36,2.36,0,0,1,1.86.14A.85.85,0,0,1,39.13,72.61Z"/><ellipse class="cls-3" cx="42.43" cy="75.37" rx="1.74" ry="0.96" transform="translate(-13.57 9.46) rotate(-10.98)"/><path class="cls-2" d="M44.14,75a.93.93,0,0,0-.82-.59,2.82,2.82,0,0,0-2,.52c-.26.19-.47.48-.42.69s.33.4.65.48a2.83,2.83,0,0,0,1,.07,2.78,2.78,0,0,0,1-.32A.93.93,0,0,0,44.14,75Zm0,0a1,1,0,0,1-.51.9,3,3,0,0,1-1,.48,2.85,2.85,0,0,1-1.13.08.94.94,0,0,1-.35-1.83,2.86,2.86,0,0,1,1.08-.35,2.91,2.91,0,0,1,1.1.07C43.67,74.48,44.06,74.67,44.14,75Z"/><ellipse class="cls-3" cx="59.64" cy="70.57" rx="1.32" ry="0.3" transform="translate(-23.24 29.73) rotate(-23.57)"/><path class="cls-2" d="M60.85,70c-.19-.13-.46,0-.67,0a5,5,0,0,0-.62.3c-.2.12-.39.25-.57.38l-.25.21-.09.09s0,.07,0-.06-.06,0,0-.05h.13l.32,0a5.43,5.43,0,0,0,.67-.16,4.47,4.47,0,0,0,.64-.25C60.55,70.39,60.82,70.28,60.85,70Zm0,0c0,.24-.29.36-.45.51a6.17,6.17,0,0,1-.6.39,3.92,3.92,0,0,1-.65.32,2.24,2.24,0,0,1-.37.1.7.7,0,0,1-.21,0,.36.36,0,0,1-.34-.19.37.37,0,0,1,.09-.37l.16-.15a2.14,2.14,0,0,1,.32-.2,4.32,4.32,0,0,1,.68-.26,5.35,5.35,0,0,1,.69-.17C60.39,70,60.66,69.9,60.85,70Z"/><ellipse class="cls-3" cx="54.27" cy="5.14" rx="0.48" ry="1.62" transform="translate(29.87 53.89) rotate(-68.82)"/><path class="cls-2" d="M52.76,4.56c0,.31.33.47.56.61a4.1,4.1,0,0,0,.82.32,4.15,4.15,0,0,0,.84.16,1.85,1.85,0,0,0,.4,0c.13,0,.26-.07.2,0s0-.08-.13-.15a2.66,2.66,0,0,0-.31-.26,4.93,4.93,0,0,0-.73-.45,5.1,5.1,0,0,0-.82-.31C53.32,4.43,53,4.32,52.76,4.56Zm0,0c.07-.14.26-.15.39-.16a2.26,2.26,0,0,1,.45,0,5.26,5.26,0,0,1,.88.17,4.8,4.8,0,0,1,.86.34,2.48,2.48,0,0,1,.39.27c.1.13.32.22.25.6s-.43.25-.59.28A1.78,1.78,0,0,1,54.92,6a4,4,0,0,1-.86-.32,5.46,5.46,0,0,1-.77-.47A2.3,2.3,0,0,1,53,4.94C52.85,4.84,52.72,4.71,52.76,4.56Z"/><ellipse class="cls-3" cx="53.15" cy="8.89" rx="0.36" ry="0.84" transform="translate(21.63 52.6) rotate(-63.69)"/><path class="cls-2" d="M52.4,8.52c.09-.15.3-.14.46-.14a2.29,2.29,0,0,1,.5.09,1.66,1.66,0,0,1,.48.24.56.56,0,0,1,.26.64.55.55,0,0,1-.67.2A2.15,2.15,0,0,1,53,9.31,1.82,1.82,0,0,1,52.57,9C52.47,8.84,52.34,8.68,52.4,8.52Zm0,0c0,.16.09.3.21.4a1.38,1.38,0,0,0,.43.19,1.45,1.45,0,0,0,.45.07c.13,0,.29,0,.23,0s0-.11-.13-.2a1.58,1.58,0,0,0-.32-.31,1.68,1.68,0,0,0-.42-.22C52.7,8.4,52.5,8.37,52.4,8.52Z"/><ellipse class="cls-3" cx="54.94" cy="8.25" rx="0.52" ry="1.19" transform="translate(23.63 54.14) rotate(-64.23)"/><path class="cls-2" d="M53.87,7.73c.13-.21.42-.2.64-.19a2.73,2.73,0,0,1,.7.15,2.43,2.43,0,0,1,.66.34c.17.17.47.36.34.83a.58.58,0,0,1-.45.28,1.11,1.11,0,0,1-.41,0,2.31,2.31,0,0,1-.68-.3,2.21,2.21,0,0,1-.55-.46C54,8.19,53.78,8,53.87,7.73Zm0,0c-.08.24.12.45.29.58a2,2,0,0,0,.6.31,2.21,2.21,0,0,0,.65.13c.19,0,.43-.05.41-.08s-.06-.23-.2-.37a2.28,2.28,0,0,0-.5-.42,1.94,1.94,0,0,0-.62-.28C54.29,7.55,54,7.52,53.87,7.73Z"/><ellipse class="cls-3" cx="66.73" cy="17.21" rx="0.64" ry="1.24" transform="translate(8.81 54.55) rotate(-47.27)"/><path class="cls-2" d="M65.82,16.37a.62.62,0,0,0,.05.7,2,2,0,0,0,.5.53,2.08,2.08,0,0,0,.63.32c.2.07.44.06.49,0s.05-.29,0-.49a2,2,0,0,0-.37-.6,1.84,1.84,0,0,0-.57-.46A.62.62,0,0,0,65.82,16.37Zm0,0a.73.73,0,0,1,.73-.07,2.4,2.4,0,0,1,.69.36,2.12,2.12,0,0,1,.55.6.82.82,0,0,1,0,.94.82.82,0,0,1-.94.06,2.25,2.25,0,0,1-.63-.5,2.31,2.31,0,0,1-.42-.66A.76.76,0,0,1,65.82,16.37Z"/><ellipse class="cls-3" cx="64.21" cy="13.35" rx="0.32" ry="0.96" transform="translate(20.54 62.28) rotate(-60)"/><path class="cls-2" d="M63.38,12.87c-.05.19.13.32.25.43a3,3,0,0,0,.47.24,3,3,0,0,0,.49.14l.22,0c.07,0,.12,0,0,0s0,0,0,0l-.13-.18a3.11,3.11,0,0,0-.37-.35,1.83,1.83,0,0,0-.44-.28C63.72,12.83,63.51,12.74,63.38,12.87Zm0,0c.13-.13.34-.06.51,0a2.46,2.46,0,0,1,.53.15,3.46,3.46,0,0,1,.5.27,1.19,1.19,0,0,1,.23.22.44.44,0,0,1,.07.47.43.43,0,0,1-.44.17,1.18,1.18,0,0,1-.3-.09,2.22,2.22,0,0,1-.49-.3,2.86,2.86,0,0,1-.4-.38C63.49,13.21,63.32,13.06,63.38,12.87Z"/><ellipse class="cls-3" cx="62.71" cy="10.81" rx="0.4" ry="1.32" transform="translate(24.99 62.06) rotate(-63.43)"/><path class="cls-2" d="M61.53,10.22c.17-.18.46-.08.69-.06a4.41,4.41,0,0,1,.71.2,3.87,3.87,0,0,1,.68.33,1.48,1.48,0,0,1,.31.26.51.51,0,0,1,.16.55.52.52,0,0,1-.54.2,1.59,1.59,0,0,1-.39-.09,3.28,3.28,0,0,1-.67-.35,3.68,3.68,0,0,1-.59-.45C61.74,10.65,61.48,10.47,61.53,10.22Zm0,0c0,.25.22.41.4.55a3.73,3.73,0,0,0,.64.3,4.64,4.64,0,0,0,.68.19l.32,0c.09,0,.2,0,.13,0s0,0-.09-.1a1.58,1.58,0,0,0-.22-.23,3.87,3.87,0,0,0-.55-.43,3,3,0,0,0-.64-.33C62,10.16,61.71,10,61.53,10.22Z"/><ellipse class="cls-3" cx="32.13" cy="11.12" rx="1.08" ry="0.64" transform="translate(-1.13 4.07) rotate(-7.12)"/><path class="cls-2" d="M31.06,11.26a.68.68,0,0,1,.33-.58,1.88,1.88,0,0,1,.64-.3,1.72,1.72,0,0,1,.75,0,.77.77,0,0,1,.63.59.76.76,0,0,1-.46.73,1.62,1.62,0,0,1-.73.17,1.85,1.85,0,0,1-.7-.13A.66.66,0,0,1,31.06,11.26Zm0,0a.56.56,0,0,0,.48.41,1.42,1.42,0,0,0,.65,0c.41-.09.84-.42.8-.64s-.52-.43-.93-.42a1.61,1.61,0,0,0-.64.14A.57.57,0,0,0,31.06,11.26Z"/><ellipse class="cls-3" cx="44.84" cy="12.19" rx="0.88" ry="0.6"/><path class="cls-2" d="M44,12.19c0-.41.47-.65.88-.71a1.24,1.24,0,0,1,.65.09.66.66,0,0,1,0,1.24,1.24,1.24,0,0,1-.65.09C44.43,12.84,44,12.6,44,12.19Zm0,0c0,.43.55.55.88.49s.68-.3.66-.49-.31-.45-.66-.49S44,11.76,44,12.19Z"/><ellipse class="cls-3" cx="39.12" cy="19.39" rx="0.56" ry="0.4"/><path class="cls-2" d="M38.56,19.39a.62.62,0,0,1,.56-.51.6.6,0,0,1,.77.51.6.6,0,0,1-.77.5C38.84,19.84,38.57,19.65,38.56,19.39Zm0,0c0,.28.36.35.56.29s.37-.24.35-.29-.12-.25-.35-.3S38.58,19.1,38.56,19.39Z"/><ellipse class="cls-3" cx="39.72" cy="21.3" rx="0.52" ry="0.44"/><path class="cls-2" d="M39.2,21.3a.63.63,0,1,1,.52.55A.59.59,0,0,1,39.2,21.3Zm0,0a.42.42,0,1,0,.52-.33A.39.39,0,0,0,39.2,21.3Z"/><ellipse class="cls-3" cx="65.59" cy="21.83" rx="0.44" ry="0.8" transform="translate(18.02 71.99) rotate(-64.93)"/><path class="cls-2" d="M64.87,21.49c-.1.36.31.57.58.64s.68,0,.67-.05-.14-.4-.39-.55S65.08,21.19,64.87,21.49Zm0,0c.19-.29.63-.24.95-.16a1.32,1.32,0,0,1,.49.27.52.52,0,0,1-.44.93,1.28,1.28,0,0,1-.51-.21C65.09,22.13,64.77,21.83,64.87,21.49Z"/><ellipse class="cls-3" cx="50.29" cy="66.75" rx="1.4" ry="0.88"/><path class="cls-2" d="M51.68,66.75a.76.76,0,0,0-.53-.65,1.84,1.84,0,0,0-.86-.12c-.55,0-1.19.38-1.19.77s.64.74,1.19.78a1.84,1.84,0,0,0,.86-.12A.76.76,0,0,0,51.68,66.75Zm0,0a.88.88,0,0,1-.5.72,2.15,2.15,0,0,1-.89.27,2,2,0,0,1-1-.14.87.87,0,0,1,0-1.69,2,2,0,0,1,1-.14,2.15,2.15,0,0,1,.89.27A.88.88,0,0,1,51.68,66.75Z"/><ellipse class="cls-3" cx="55.24" cy="67.55" rx="1.16" ry="0.52" transform="translate(-19.7 22.85) rotate(-19.91)"/><path class="cls-2" d="M56.33,67.16c-.11-.22-.39-.22-.6-.2a2.31,2.31,0,0,0-.63.2,2,2,0,0,0-.52.37c-.15.12-.26.34-.23.35s.2.12.4.12a2.28,2.28,0,0,0,.63-.06A2,2,0,0,0,56,67.7C56.17,67.58,56.39,67.4,56.33,67.16Zm0,0c.07.23-.14.43-.29.58a2.31,2.31,0,0,1-.58.4,2.12,2.12,0,0,1-.7.22A.73.73,0,0,1,54,68c-.09-.46.22-.63.4-.78A2.06,2.06,0,0,1,55,67a2.38,2.38,0,0,1,.7-.07C56,66.91,56.23,66.94,56.33,67.16Z"/><ellipse class="cls-3" cx="49.25" cy="76.51" rx="1.4" ry="0.4"/><path class="cls-2" d="M50.64,76.51c-.09-.25-.41-.27-.64-.31a4.68,4.68,0,0,0-.75,0,5.55,5.55,0,0,0-.73.14l-.33.11c-.1,0-.18.15-.13.05s0,0,.13,0l.33.11a4.29,4.29,0,0,0,.73.14,3.75,3.75,0,0,0,.75,0C50.23,76.77,50.55,76.76,50.64,76.51Zm0,0c0,.13-.16.19-.27.24a2.17,2.17,0,0,1-.36.12,3.91,3.91,0,0,1-.76.14,3.56,3.56,0,0,1-.8,0,1.42,1.42,0,0,1-.4-.08c-.12-.08-.33-.06-.42-.43.09-.37.3-.35.42-.43a2.07,2.07,0,0,1,.4-.09,5.33,5.33,0,0,1,.8,0,6.36,6.36,0,0,1,.76.14C50.23,76.22,50.56,76.25,50.64,76.51Z"/><ellipse class="cls-3" cx="41.21" cy="77.15" rx="1.32" ry="0.44"/><path class="cls-2" d="M42.53,77.15c-.07-.25-.38-.3-.6-.34a3.47,3.47,0,0,0-.72,0,3.84,3.84,0,0,0-.69.15,1.34,1.34,0,0,0-.3.12c-.09,0-.14.13-.12.07s0,0,.12.06a1.34,1.34,0,0,0,.3.12,3.84,3.84,0,0,0,.69.15,3.47,3.47,0,0,0,.72,0C42.15,77.44,42.46,77.4,42.53,77.15Zm0,0c-.06.25-.37.31-.58.39a3.14,3.14,0,0,1-.74.15,2.84,2.84,0,0,1-.77,0,1.86,1.86,0,0,1-.39-.1c-.12-.08-.33-.12-.37-.44a.54.54,0,0,1,.37-.44,1.43,1.43,0,0,1,.39-.11,4,4,0,0,1,.77,0,4.62,4.62,0,0,1,.74.15C42.16,76.83,42.47,76.89,42.53,77.15Z"/><ellipse class="cls-3" cx="41.61" cy="69.19" rx="1.28" ry="0.56"/><path class="cls-2" d="M42.89,69.19c0-.26-.32-.37-.55-.43a2.55,2.55,0,0,0-.73,0,2.42,2.42,0,0,0-.68.17c-.21.07-.41.25-.39.28s.18.22.39.28a2.43,2.43,0,0,0,.68.18,2.56,2.56,0,0,0,.73,0C42.57,69.56,42.86,69.46,42.89,69.19Zm0,0c0,.27-.31.39-.53.49a3.16,3.16,0,0,1-.75.18,2.64,2.64,0,0,1-.79,0,1.05,1.05,0,0,1-.4-.16.57.57,0,0,1-.3-.47.6.6,0,0,1,.3-.47,1.52,1.52,0,0,1,.4-.16,2.34,2.34,0,0,1,.79,0,2.42,2.42,0,0,1,.75.18C42.58,68.8,42.87,68.93,42.89,69.19Z"/><ellipse class="cls-3" cx="52.08" cy="72.99" rx="0.72" ry="0.32"/><path class="cls-2" d="M52.8,73c-.09-.29-.48-.26-.72-.21a1.39,1.39,0,0,0-.36.12c-.11,0-.18.16-.14.09s0,.05.14.09a1.39,1.39,0,0,0,.36.12C52.32,73.24,52.71,73.28,52.8,73Zm0,0c0,.15-.17.23-.29.29a2,2,0,0,1-.43.14,1.83,1.83,0,0,1-.47,0c-.14-.05-.39-.06-.46-.44s.32-.38.46-.43a1.48,1.48,0,0,1,.47,0,2,2,0,0,1,.43.14C52.63,72.76,52.79,72.84,52.8,73Z"/><ellipse class="cls-3" cx="51.76" cy="70.39" rx="0.8" ry="0.44"/><path class="cls-2" d="M52.56,70.39c-.06-.36-.52-.38-.8-.33s-.62.27-.58.33.29.3.58.33S52.5,70.76,52.56,70.39Zm0,0c-.05.35-.47.48-.8.55a1.3,1.3,0,0,1-.55,0,.59.59,0,0,1-.46-.52.6.6,0,0,1,.46-.52,1.29,1.29,0,0,1,.55,0C52.09,69.91,52.51,70.05,52.56,70.39Z"/><ellipse class="cls-3" cx="64.72" cy="65.55" rx="1.76" ry="0.84" transform="translate(-25.24 45.71) rotate(-32.93)"/><path class="cls-2" d="M66.19,64.6c-.23-.3-.65-.24-1-.15a3.27,3.27,0,0,0-.9.49,3.18,3.18,0,0,0-.7.72c-.18.25-.31.6-.2.74s.45.17.75.11a3.32,3.32,0,0,0,.94-.34,3.15,3.15,0,0,0,.82-.63C66.14,65.29,66.37,64.93,66.19,64.6Zm0,0c.19.33,0,.7-.21,1a3.65,3.65,0,0,1-.75.77,3.33,3.33,0,0,1-1,.51,1.41,1.41,0,0,1-.58.08.78.78,0,0,1-.62-.31.77.77,0,0,1,0-.69,1.55,1.55,0,0,1,.3-.5,3.31,3.31,0,0,1,.87-.68,3.72,3.72,0,0,1,1-.37C65.54,64.34,66,64.3,66.19,64.6Z"/><ellipse class="cls-3" cx="58.76" cy="59.76" rx="0.8" ry="0.52"/><path class="cls-2" d="M59.56,59.76c0-.39-.51-.47-.8-.41s-.61.28-.59.41.27.37.59.41S59.52,60.15,59.56,59.76Zm0,0c0,.37-.44.57-.8.63a1.22,1.22,0,0,1-.59-.07.63.63,0,0,1-.42-.56.66.66,0,0,1,.42-.57,1.34,1.34,0,0,1,.59-.06C59.12,59.19,59.53,59.39,59.56,59.76Z"/><ellipse class="cls-3" cx="59.88" cy="68.95" rx="0.84" ry="0.36" transform="translate(-26.45 39.18) rotate(-30)"/><path class="cls-2" d="M60.61,68.53c-.11-.13-.31-.09-.45,0a1.3,1.3,0,0,0-.41.24,1.59,1.59,0,0,0-.3.34.55.55,0,0,0-.11.2c-.07,0,.09,0,.22,0a1.34,1.34,0,0,0,.44-.1,1.15,1.15,0,0,0,.42-.23A.38.38,0,0,0,60.61,68.53Zm0,0c.07.16,0,.33-.14.46a2.09,2.09,0,0,1-.36.37,1.86,1.86,0,0,1-.46.27.56.56,0,0,1-.68-.15c-.14-.4.1-.53.21-.66a1.31,1.31,0,0,1,.47-.27,2.19,2.19,0,0,1,.49-.12C60.3,68.42,60.5,68.39,60.61,68.53Z"/><ellipse class="cls-3" cx="26.5" cy="75.23" rx="0.4" ry="1.52" transform="translate(-52.62 85.34) rotate(-77.87)"/><path class="cls-2" d="M28,75.55c-.06-.28-.4-.36-.63-.45a4.36,4.36,0,0,0-.8-.16,5.22,5.22,0,0,0-.79,0,2.34,2.34,0,0,0-.38,0c-.11,0-.25.12-.17,0s.05,0,.15.08a2.59,2.59,0,0,0,.33.19,5.42,5.42,0,0,0,.74.29,5.35,5.35,0,0,0,.79.19C27.48,75.71,27.82,75.78,28,75.55Zm0,0c-.06.13-.23.15-.35.18l-.41,0a5.78,5.78,0,0,1-1.66-.2,2.13,2.13,0,0,1-.41-.18.66.66,0,0,1-.2-.14.41.41,0,0,1-.15-.38.39.39,0,0,1,.29-.27.69.69,0,0,1,.24,0,1.61,1.61,0,0,1,.44,0,4.54,4.54,0,0,1,.83.18,7.28,7.28,0,0,1,.77.31,3.07,3.07,0,0,1,.36.2C27.85,75.32,28,75.4,28,75.55Z"/><ellipse class="cls-3" cx="31.78" cy="74.67" rx="0.48" ry="2.04" transform="translate(-48.29 87.88) rotate(-76.32)"/><path class="cls-2" d="M33.76,75.15c0-.19-.21-.28-.35-.38a3.11,3.11,0,0,0-.5-.21,6.3,6.3,0,0,0-1-.25,7.78,7.78,0,0,0-1.06-.11,3,3,0,0,0-.52,0,.85.85,0,0,0-.23,0c-.07,0-.1.07-.06,0s0,0,.06,0a1.56,1.56,0,0,0,.19.14l.45.24a8.48,8.48,0,0,0,1,.39,7.32,7.32,0,0,0,1.05.26,4.56,4.56,0,0,0,.54,0C33.44,75.31,33.67,75.32,33.76,75.15Zm0,0c-.09.17-.32.17-.48.19a3.39,3.39,0,0,1-.55,0,8.05,8.05,0,0,1-1.09-.11A8.47,8.47,0,0,1,30.56,75a3.43,3.43,0,0,1-.52-.23,2,2,0,0,1-.26-.18.39.39,0,0,1,.18-.73,1.15,1.15,0,0,1,.31,0,2.69,2.69,0,0,1,.57,0,6.54,6.54,0,0,1,1.08.26,9,9,0,0,1,1,.4c.16.08.32.16.48.26S33.76,75,33.76,75.15Z"/><ellipse class="cls-3" cx="35.81" cy="76.71" rx="1.28" ry="0.48"/><path class="cls-2" d="M37.09,76.71c-.05-.26-.35-.32-.56-.37a2.89,2.89,0,0,0-.72,0,3,3,0,0,0-.67.16.78.78,0,0,0-.39.22,1,1,0,0,0,.39.22,3.63,3.63,0,0,0,.67.15,2.89,2.89,0,0,0,.72,0C36.74,77,37,77,37.09,76.71Zm0,0c0,.25-.34.34-.55.42a3,3,0,0,1-.73.16,2.43,2.43,0,0,1-.76,0,1.46,1.46,0,0,1-.39-.12.58.58,0,0,1-.34-.45.55.55,0,0,1,.34-.45,1.49,1.49,0,0,1,.39-.13,3.23,3.23,0,0,1,.76,0,3.51,3.51,0,0,1,.73.16C36.75,76.37,37.05,76.45,37.09,76.71Z"/></svg>