<?xml version="1.0" encoding="utf-8"?>
<!-- Generator: Adobe Illustrator 23.0.3, SVG Export Plug-In . SVG Version: 6.00 Build 0)  -->
<svg version="1.1" id="Layer_1" xmlns="http://www.w3.org/2000/svg" xmlns:xlink="http://www.w3.org/1999/xlink" x="0px" y="0px"
	 width="118.7" height="73.3" viewBox="0 0 118.7 73.3" style="enable-background:new 0 0 118.7 73.3;" xml:space="preserve">
<style type="text/css">
	.st0{fill:#754C24;}
	.st1{fill:#8C6239;}
	.st2{fill:none;stroke:#29ABE2;stroke-width:1.5;stroke-linejoin:bevel;}
	.st3{fill:none;stroke:#C69C6D;stroke-width:2.89;stroke-linejoin:bevel;}
	.st4{fill:#209AC4;}
</style>
<title>Boston1_v8</title>
<g>
	<g>
		<path class="st0" d="M102.8,59.2l6.9-56.1l-3.6-0.4l-7,56.5C99.2,59.9,102.8,59.9,102.8,59.2z"/>
		<path class="st0" d="M19.5,59.2l-7-56.5L9,3.1l6.9,56.1C15.9,59.9,19.5,59.9,19.5,59.2z"/>
		<path class="st1" d="M4.4,72.6l8.4-67.7H106l8.3,67.7c0,0.9,4.4,0.9,4.4,0l-8.9-72H8.9L0,72.6C0,73.4,4.4,73.4,4.4,72.6z"/>
		<line class="st2" x1="44.7" y1="57.7" x2="44.7" y2="0"/>
		<line class="st2" x1="28.9" y1="0" x2="28.9" y2="57.7"/>
		<line class="st3" x1="26.5" y1="51.6" x2="48.1" y2="51.6"/>
		<ellipse class="st4" cx="28.9" cy="54.1" rx="1.6" ry="1.1"/>
		<ellipse class="st4" cx="44.7" cy="54.1" rx="1.6" ry="1.1"/>
		<line class="st2" x1="84.8" y1="57.7" x2="84.8" y2="0"/>
		<line class="st2" x1="68.9" y1="0" x2="68.9" y2="57.7"/>
		<line class="st3" x1="66.5" y1="51.6" x2="88.2" y2="51.6"/>
		<ellipse class="st4" cx="68.9" cy="54.1" rx="1.6" ry="1.1"/>
		<ellipse class="st4" cx="84.8" cy="54.1" rx="1.6" ry="1.1"/>
	</g>
</g>
</svg>
