<svg id="Layer_1" data-name="Layer 1" xmlns="http://www.w3.org/2000/svg" width="60" height="30" viewBox="0 0 60 30"><defs><style>.cls-1{fill:#282560;}</style></defs><title>lamp-frame</title><path class="cls-1" d="M35.67,12.79V12.2h-.53c-1-.73-1.08-2-1.49-2.93a3.88,3.88,0,0,0-1.87-1.93h.1V6.93h-.33V6.55h-.39V6.11h-.71v-1a.54.54,0,0,0,.36-.45c0-.3-.36-.55-.81-.55s-.81.25-.81.55a.54.54,0,0,0,.36.45v1h-.71v.44h-.39v.38h-.33v.41h.1a3.88,3.88,0,0,0-1.87,1.93c-.41.94-.53,2.2-1.49,2.93h-.53v.59H23.6v.65H36.4v-.65Z"/><path class="cls-1" d="M34.25,14.15l-1.82,8.27H27.57l-1.82-8.27h8.5m1-.81H24.75l2.18,9.88h6.14l2.18-9.88Z"/><polygon class="cls-1" points="31.39 24.61 28.61 24.61 27.61 23.22 32.39 23.22 31.39 24.61"/></svg>