<svg id="Layer_1" data-name="Layer 1" xmlns="http://www.w3.org/2000/svg" width="178.77" height="210.34" viewBox="0 0 178.77 210.34"><defs><style>.cls-1,.cls-2{fill:none;stroke-linecap:round;stroke-miterlimit:10;stroke-width:35.52px;}.cls-1{stroke:#fbb03b;}.cls-2{stroke:#fcee21;}.cls-3{fill:#8c6239;}.cls-4{fill:#a67c52;}.cls-5{fill:red;}.cls-6{fill:#c1272d;}.cls-7{fill:#fcee21;}.cls-8{fill:#fbb03b;}</style></defs><title>playground</title><line class="cls-1" x1="117.77" y1="161.75" x2="161.02" y2="130.91"/><line class="cls-2" x1="96.26" y1="87.13" x2="161.02" y2="130.91"/><rect class="cls-3" x="6.16" y="45.05" width="16.31" height="164.71" rx="6.85"/><rect class="cls-3" x="15.22" y="100.01" width="32.73" height="16.31" rx="3.19" transform="translate(139.75 76.58) rotate(90)"/><rect class="cls-3" x="32.49" y="100.01" width="32.73" height="16.31" rx="3.19" transform="translate(157.01 59.31) rotate(90)"/><rect class="cls-3" x="49.76" y="100.01" width="32.73" height="16.31" rx="3.19" transform="translate(174.28 42.04) rotate(90)"/><rect class="cls-3" x="1.03" y="119.25" width="164.71" height="16.31" rx="6.85" transform="translate(210.8 44.02) rotate(90)"/><path class="cls-4" d="M84.89,45.06a6.85,6.85,0,0,0-6.65,6.84v151a6.66,6.66,0,1,0,13.31,0V51.9A6.86,6.86,0,0,0,84.89,45.06Z"/><rect class="cls-4" x="26.43" y="91.8" width="13.31" height="32.73" rx="3.19"/><rect class="cls-4" x="60.97" y="91.8" width="13.31" height="32.73" rx="3.19"/><rect class="cls-4" x="43.7" y="91.8" width="13.31" height="32.73" rx="3.19"/><path class="cls-4" d="M22.47,202.91V51.9a6.85,6.85,0,0,0-6.65-6.84A6.85,6.85,0,0,0,9.16,51.9v151a6.84,6.84,0,0,0,6.66,6.84A6.84,6.84,0,0,0,22.47,202.91Z"/><path class="cls-5" d="M96.39,39.25,52,1.12a5,5,0,0,0-6.32,0L1.32,39.25C-1.5,41.67.5,45.8,4.48,45.8H93.23C97.21,45.8,99.2,41.67,96.39,39.25Z"/><path class="cls-6" d="M1.32,39.25C-1.5,41.67.5,45.8,4.48,45.8H15.87c-3,0-4.44-4.13-2.35-6.55l33-38.13A3.1,3.1,0,0,1,48.85,0a4.87,4.87,0,0,0-3.16,1.12Z"/><line class="cls-2" x1="117.77" y1="161.75" x2="161.02" y2="192.59"/><rect class="cls-7" x="91.41" y="65.47" width="8.34" height="48.92"/><polygon class="cls-8" points="101.5 113.39 99.7 114.39 99.7 65.47 101.5 66.47 101.5 113.39"/></svg>
