<svg id="Layer_1" data-name="Layer 1" xmlns="http://www.w3.org/2000/svg" width="139.32" height="57.44" viewBox="0 0 139.32 57.44"><defs><style>.cls-1{fill:#ed1c24;}.cls-2{fill:#c1272d;}.cls-3{fill:#dbbd79;}.cls-4{fill:#f7931e;}.cls-5{fill:#ff0;}.cls-6{fill:#fcee21;}.cls-7{fill:#efd79a;}.cls-8{fill:#29abe2;}.cls-9{fill:aqua;}.cls-10{fill:#0071bc;}.cls-11{fill:#999;}.cls-12{fill:#4d4d4d;}</style></defs><title>playground</title><path class="cls-1" d="M2.09,39H137.23a0,0,0,0,1,0,0V54.35a3.09,3.09,0,0,1-3.09,3.09H5.18a3.09,3.09,0,0,1-3.09-3.09V39a0,0,0,0,1,0,0Z"/><rect class="cls-1" y="32.39" width="139.32" height="6.57"/><polygon class="cls-2" points="139.32 38.97 0 38.97 1 41 138.32 41 139.32 38.97"/><polygon class="cls-2" points="27.14 22.46 109.57 22.46 107.97 20.55 27.14 20.55 27.14 22.46"/><polygon class="cls-2" points="36.06 20.55 31.35 20.55 0 32.39 4.71 32.39 36.06 20.55"/><path class="cls-3" d="M61.64,22.79c11.46-4.94,34.7-6.13,52.13,1.05L101,28.18,73.74,29.52Z"/><rect class="cls-4" x="91.98" y="3.02" width="1.85" height="14.04" transform="translate(171.71 60.27) rotate(-153.65)"/><path class="cls-5" d="M83.46,22l1,.47c.39.19.91-.08,1.18-.62a1,1,0,0,0,.21,1.31l1,.47c.38.19.91-.09,1.17-.62a1,1,0,0,0,.22,1.31l1,.47c.38.19.91-.09,1.17-.62l2.9-5.86A1,1,0,0,0,93,17l-1-.47-1.39-.69-1-.47-1.39-.69-1-.47c-.38-.19-.9.09-1.17.62l-2.9,5.86A1,1,0,0,0,83.46,22Z"/><path class="cls-6" d="M87,14.81l.95.47a1,1,0,0,1,.22,1.31c.26-.53.79-.81,1.17-.62l1,.47a1,1,0,0,1,.21,1.31c.27-.53.79-.81,1.18-.62l1,.47a1,1,0,0,1,.21,1.31l.28-.57A1,1,0,0,0,93,17l-1-.47-1.39-.69-1-.47-1.39-.69-1-.47c-.38-.19-.9.09-1.17.62l-.28.57C86.13,14.9,86.66,14.62,87,14.81Z"/><path class="cls-6" d="M94.37,3.65,97.1,5a.84.84,0,0,0,1.12-.38l1-2.07a.82.82,0,0,0-.37-1.11L96.14.09A.83.83,0,0,0,95,.46L94,2.53A.83.83,0,0,0,94.37,3.65Zm1.25-2.41a.52.52,0,0,1,.7-.23L98,1.85a.53.53,0,0,1,.23.7l-.64,1.29a.52.52,0,0,1-.7.24l-1.71-.85A.51.51,0,0,1,95,2.54Z"/><path class="cls-3" d="M100.52,26c-4.75,0-9.32-5.81-15.18-5.81s-9.5,3.32-13.89,3.32l4.25,8.34Z"/><polygon class="cls-2" points="103.26 20.55 107.97 20.55 139.32 32.39 134.61 32.39 103.26 20.55"/><path class="cls-7" d="M4.71,32.39c23.28-11.27,29.24-22,61-9.58,25.48,10,28,.42,40.12.42,10.14,0,14.22,2,28.77,9.16"/><path class="cls-8" d="M52.91,25.13l-6.27,3.18a2.4,2.4,0,0,1-3-.69l-9.1-11.87a2.41,2.41,0,0,1,.82-3.61L46.54,6.48A2.41,2.41,0,0,1,49.94,8l4.19,14.36A2.4,2.4,0,0,1,52.91,25.13Z"/><rect class="cls-9" x="31.49" y="8.05" width="19.86" height="4.35" rx="1.86" transform="translate(-0.15 19.83) rotate(-26.87)"/><rect class="cls-10" x="35.35" y="16.19" width="1.5" height="2.61" rx="0.63" transform="translate(-4.01 18.21) rotate(-26.87)"/><rect class="cls-10" x="49.75" y="8.9" width="1.47" height="2.61" rx="0.63" transform="translate(0.84 23.92) rotate(-26.87)"/><path class="cls-11" d="M46.55,20.37c-3.86,2-9,2-11.31-2.44a.48.48,0,0,1,.21-.64.47.47,0,0,1,.64.21c2,3.89,6.58,3.78,10,2s6.27-5.4,4.29-9.3a.48.48,0,0,1,.21-.63.47.47,0,0,1,.64.21C53.54,14.28,50.41,18.42,46.55,20.37Z"/><path class="cls-12" d="M46.42,20.11c-3.79,1.92-8.85,2-11.18-2.22v0c2.27,4.47,7.45,4.4,11.31,2.44s7-6.09,4.72-10.56l0,0C53.27,14.16,50.21,18.19,46.42,20.11Z"/><path class="cls-7" d="M62,26.52c-3.46,0-6.8-4.23-11.06-4.23S44,24.71,40.84,24.71l3.1,6.07Z"/></svg>
